<svg xmlns="http://www.w3.org/2000/svg" version="1.1" xmlns:xlink="http://www.w3.org/1999/xlink" width="512" height="512" x="0" y="0" viewBox="0 0 66 66" style="enable-background:new 0 0 512 512" xml:space="preserve"><g><path fill="#f1363e" d="M63.895 33c0 17.062-13.833 30.895-30.896 30.895a31.017 31.017 0 0 1-6.427-.67c-9.302-1.967-17.06-8.122-21.207-16.397a30.638 30.638 0 0 1-3.14-11.086c-.08-.904-.12-1.818-.12-2.743v-.011c.006-17.026 13.783-30.831 30.8-30.883h.094a30.708 30.708 0 0 1 6.733.738c.66.144 1.312.313 1.955.5a30.791 30.791 0 0 1 10.184 5.195c7.313 5.648 12.024 14.505 12.024 24.461z" opacity="1" data-original="#f1363e"></path><path fill="#f55059" d="M33.13 5.723c.017 8.417-2.985 16.976-8.95 22.913-5.675 5.647-14.124 8.622-21.955 7.106-.08-.904-.12-1.818-.12-2.743v-.011c.006-17.026 13.783-30.831 30.8-30.883.157 1.2.224 2.417.226 3.618z" opacity="1" data-original="#f55059"></path><path fill="#ce0d24" d="M63.895 33c0 17.062-13.833 30.895-30.896 30.895a31.017 31.017 0 0 1-6.427-.67c-9.302-1.967-17.06-8.122-21.207-16.397A30.732 30.732 0 0 0 19.76 52.94c1.462.213 2.956.323 4.478.323 17.063 0 30.896-13.833 30.896-30.896 0-4.97-1.175-9.669-3.264-13.83C59.184 14.188 63.895 23.044 63.895 33z" opacity="1" data-original="#ce0d24"></path><path fill="#b5001f" d="M22.604 29.661c-2.765 11.355-.586 23.965 5.832 33.734a.747.747 0 0 1 .086.178 29.556 29.556 0 0 1-1.95-.349c-6.153-9.96-8.177-22.545-5.408-33.915 2.598-10.667 9.437-20.347 18.568-26.466.66.144 1.312.313 1.955.5-9.394 5.858-16.464 15.57-19.083 26.318z" opacity="1" data-original="#b5001f"></path><path fill="#ffffff" d="M22.793 61.537a.232.232 0 0 1-.204-.121 45.32 45.32 0 0 1-.348-.66.232.232 0 0 1 .411-.213c.113.219.228.436.345.653a.232.232 0 0 1-.204.341zM21.79 59.563a.232.232 0 0 1-.209-.132c-.21-.443-.418-.896-.615-1.347a.232.232 0 1 1 .424-.186c.196.447.4.895.61 1.333a.232.232 0 0 1-.21.332zm-1.18-2.7a.232.232 0 0 1-.216-.145 46.36 46.36 0 0 1-.527-1.384.232.232 0 0 1 .436-.158c.165.457.341.918.521 1.37a.232.232 0 0 1-.215.317zm-1.005-2.77a.232.232 0 0 1-.22-.159 46.76 46.76 0 0 1-.438-1.414.232.232 0 1 1 .445-.13c.136.467.282.938.433 1.4a.232.232 0 0 1-.22.304zm-.826-2.827a.232.232 0 0 1-.224-.174 46.87 46.87 0 0 1-.347-1.44.232.232 0 0 1 .452-.1c.106.473.222.953.343 1.424a.232.232 0 0 1-.224.29zm-.646-2.875a.232.232 0 0 1-.227-.188 47.38 47.38 0 0 1-.256-1.458.232.232 0 1 1 .457-.073c.077.48.162.967.254 1.444a.232.232 0 0 1-.228.275zm-.464-2.91a.232.232 0 0 1-.23-.202c-.062-.489-.117-.984-.164-1.471a.232.232 0 1 1 .462-.044c.046.482.1.973.162 1.457a.232.232 0 0 1-.23.26zm-.28-2.932a.232.232 0 0 1-.231-.217c-.032-.49-.056-.988-.072-1.479a.232.232 0 0 1 .463-.015c.016.487.04.98.071 1.465a.232.232 0 0 1-.231.246zm-.095-2.945a.232.232 0 0 1-.232-.231v-.028c0-.482.008-.97.023-1.453a.232.232 0 0 1 .463.014c-.015.478-.023.961-.023 1.439v.028a.232.232 0 0 1-.231.231zm.092-2.944h-.015a.232.232 0 0 1-.216-.247c.03-.491.07-.988.117-1.476a.232.232 0 1 1 .461.044c-.046.483-.085.975-.116 1.462a.232.232 0 0 1-.23.217zm.281-2.933c-.01 0-.02 0-.03-.002a.232.232 0 0 1-.2-.26c.063-.488.135-.98.214-1.465a.231.231 0 1 1 .457.074 44.64 44.64 0 0 0-.211 1.45.232.232 0 0 1-.23.203zm.472-2.908a.232.232 0 0 1-.227-.277 44.915 44.915 0 0 1 .31-1.448.232.232 0 0 1 .45.105 43.253 43.253 0 0 0-.305 1.433.232.232 0 0 1-.228.187zm.664-2.87a.232.232 0 0 1-.224-.291c.126-.476.262-.955.404-1.425a.232.232 0 0 1 .444.134c-.14.465-.275.94-.4 1.41a.232.232 0 0 1-.224.172zm.85-2.821a.232.232 0 0 1-.22-.306c.158-.466.324-.935.496-1.395a.232.232 0 0 1 .434.162c-.17.455-.335.92-.49 1.381a.232.232 0 0 1-.22.158zm1.03-2.76a.232.232 0 0 1-.214-.32c.187-.453.383-.91.585-1.36a.231.231 0 1 1 .422.189c-.2.445-.394.899-.578 1.347a.232.232 0 0 1-.214.144zm1.205-2.689a.231.231 0 0 1-.208-.333c.215-.44.44-.885.669-1.32a.232.232 0 0 1 .41.215c-.227.432-.45.872-.662 1.308a.232.232 0 0 1-.209.13zm1.372-2.607a.23.23 0 0 1-.201-.346c.243-.43.496-.859.75-1.276a.232.232 0 0 1 .396.241c-.252.413-.502.839-.743 1.264a.232.232 0 0 1-.202.117zm1.533-2.516a.23.23 0 0 1-.193-.358c.268-.411.547-.824.829-1.227a.232.232 0 0 1 .38.266c-.28.399-.556.807-.821 1.214a.231.231 0 0 1-.195.105zm1.689-2.415a.23.23 0 0 1-.186-.37c.295-.394.6-.789.905-1.172a.232.232 0 0 1 .362.289c-.302.38-.604.77-.896 1.16a.231.231 0 0 1-.185.093zm1.836-2.303a.232.232 0 0 1-.176-.382c.318-.373.646-.748.977-1.112a.232.232 0 0 1 .343.31c-.327.362-.652.732-.967 1.102a.231.231 0 0 1-.177.082zm1.98-2.182a.23.23 0 0 1-.167-.393c.343-.355.695-.707 1.047-1.048a.232.232 0 0 1 .322.333 45.7 45.7 0 0 0-1.036 1.037.231.231 0 0 1-.166.07zm2.115-2.051a.232.232 0 0 1-.156-.403c.364-.33.738-.66 1.112-.978a.231.231 0 1 1 .3.353c-.37.315-.74.64-1.1.968a.23.23 0 0 1-.156.06zM34.661 3.693a.231.231 0 0 1-.144-.413c.194-.154.39-.307.587-.458a.232.232 0 0 1 .283.367c-.196.15-.39.301-.582.454a.23.23 0 0 1-.144.05zM19.987 60.128a.232.232 0 0 1-.201-.116 41.557 41.557 0 0 1-.365-.65.232.232 0 0 1 .406-.223c.118.215.239.43.36.643a.232.232 0 0 1-.2.346zM18.918 58.14a.232.232 0 0 1-.207-.127c-.228-.451-.45-.913-.662-1.374a.232.232 0 1 1 .42-.194c.21.456.43.913.655 1.36a.232.232 0 0 1-.206.335zm-1.27-2.754a.232.232 0 0 1-.213-.142 43.746 43.746 0 0 1-.564-1.417.232.232 0 1 1 .433-.164c.177.469.365.94.558 1.402a.232.232 0 0 1-.213.32zm-1.072-2.836a.232.232 0 0 1-.22-.158c-.162-.48-.319-.968-.464-1.452a.232.232 0 1 1 .443-.133c.144.479.3.962.46 1.437a.232.232 0 0 1-.22.306zm-.875-2.904a.232.232 0 0 1-.224-.172 44.745 44.745 0 0 1-.363-1.48.232.232 0 1 1 .452-.104c.11.49.232.982.36 1.465a.232.232 0 0 1-.225.291zm-.672-2.957a.232.232 0 0 1-.228-.188c-.094-.495-.182-1-.26-1.502a.232.232 0 1 1 .457-.071c.078.496.165.996.258 1.486a.232.232 0 0 1-.227.275zm-.468-2.996a.232.232 0 0 1-.23-.204 44.445 44.445 0 0 1-.157-1.516.232.232 0 0 1 .462-.04c.043.498.095 1.003.155 1.5a.232.232 0 0 1-.23.26zm-.26-3.021a.232.232 0 0 1-.231-.22 44.461 44.461 0 0 1-.052-1.523.232.232 0 0 1 .227-.236c.133.004.234.1.236.228.008.5.026 1.007.051 1.507a.232.232 0 0 1-.231.244zm-.05-3.032h-.005a.232.232 0 0 1-.227-.236c.009-.506.027-1.02.054-1.523a.228.228 0 0 1 .245-.217.232.232 0 0 1 .217.245c-.03.496-.051 1-.064 1.5a.232.232 0 0 1-.231.226zm.182-3.013-.023-.001a.232.232 0 0 1-.208-.253c.048-.503.107-1.01.173-1.509a.232.232 0 1 1 .46.062c-.066.493-.124.995-.172 1.491a.232.232 0 0 1-.23.21zm.401-2.992a.232.232 0 0 1-.228-.271c.073-.425.155-.852.242-1.272l.046-.22a.232.232 0 0 1 .453.097l-.045.217c-.087.415-.167.837-.24 1.257a.232.232 0 0 1-.228.192zm.627-2.954a.232.232 0 0 1-.225-.288c.121-.487.253-.98.39-1.465a.231.231 0 1 1 .446.126c-.136.48-.267.969-.387 1.452a.232.232 0 0 1-.224.175zm.827-2.903a.232.232 0 0 1-.22-.303c.153-.48.317-.963.487-1.437a.232.232 0 0 1 .436.157c-.168.468-.33.947-.483 1.422a.232.232 0 0 1-.22.16zm1.017-2.842a.232.232 0 0 1-.215-.317c.185-.468.38-.94.581-1.402a.232.232 0 0 1 .425.185 46.35 46.35 0 0 0-.575 1.387.232.232 0 0 1-.216.147zm1.202-2.77a.231.231 0 0 1-.21-.33c.217-.457.442-.914.672-1.362a.232.232 0 1 1 .412.212c-.227.443-.45.896-.664 1.347a.232.232 0 0 1-.21.133zm1.379-2.686a.231.231 0 0 1-.202-.344c.245-.442.5-.884.757-1.314a.232.232 0 0 1 .398.237c-.255.427-.508.865-.75 1.302a.231.231 0 0 1-.203.12zm1.549-2.591a.23.23 0 0 1-.195-.357c.273-.424.555-.85.84-1.263a.231.231 0 1 1 .382.263c-.282.41-.562.83-.832 1.25a.232.232 0 0 1-.195.107zm1.712-2.487a.231.231 0 0 1-.186-.37c.3-.405.609-.81.92-1.205a.232.232 0 1 1 .364.287c-.308.39-.615.792-.911 1.194a.231.231 0 0 1-.187.094zm1.87-2.37a.231.231 0 0 1-.177-.381c.324-.385.66-.77.996-1.145a.232.232 0 0 1 .344.31c-.333.37-.665.752-.986 1.133a.231.231 0 0 1-.177.082zm2.02-2.245a.23.23 0 0 1-.168-.392 46.29 46.29 0 0 1 1.07-1.077.232.232 0 0 1 .323.332c-.358.348-.714.707-1.059 1.066a.23.23 0 0 1-.167.071zm2.162-2.106a.231.231 0 0 1-.156-.403c.372-.34.755-.677 1.138-1.004a.231.231 0 1 1 .3.353 45.4 45.4 0 0 0-1.126.993.23.23 0 0 1-.156.06zM44.887 6.222a.231.231 0 0 1-.145-.413c.195-.154.39-.307.588-.459a.232.232 0 0 1 .282.368c-.195.15-.389.301-.581.454a.23.23 0 0 1-.144.05zM30.05 62.885a.232.232 0 0 1-.205-.123c-.116-.22-.23-.44-.343-.662a.232.232 0 0 1 .413-.21c.111.22.224.438.34.655a.232.232 0 0 1-.205.34zM29.064 60.903a.232.232 0 0 1-.21-.134c-.207-.444-.41-.898-.603-1.352a.232.232 0 0 1 .426-.181c.191.448.392.898.597 1.337a.232.232 0 0 1-.21.33zm-1.156-2.708a.232.232 0 0 1-.216-.148c-.177-.457-.35-.924-.514-1.388a.232.232 0 1 1 .437-.154c.162.46.333.922.51 1.374a.232.232 0 0 1-.217.316zm-.98-2.777a.232.232 0 0 1-.22-.161 48.125 48.125 0 0 1-.426-1.417.232.232 0 0 1 .446-.127c.133.47.275.942.422 1.403a.232.232 0 0 1-.221.302zm-.804-2.832a.232.232 0 0 1-.224-.175c-.12-.476-.234-.96-.34-1.44a.232.232 0 1 1 .453-.1c.105.476.218.956.336 1.427a.232.232 0 0 1-.225.288zm-.631-2.876a.232.232 0 0 1-.227-.19c-.091-.481-.176-.971-.252-1.457a.232.232 0 1 1 .458-.072c.075.481.16.967.249 1.444a.232.232 0 0 1-.228.275zm-.458-2.91a.232.232 0 0 1-.23-.201 49.87 49.87 0 0 1-.164-1.47.232.232 0 0 1 .461-.045c.047.483.102.973.163 1.456a.232.232 0 0 1-.23.26zm-.284-2.93a.232.232 0 0 1-.23-.216c-.034-.491-.06-.988-.078-1.478a.232.232 0 0 1 .463-.017c.018.485.044.977.076 1.464a.232.232 0 0 1-.23.247zm-.11-2.943a.232.232 0 0 1-.23-.23 43.1 43.1 0 0 1 .01-1.479.228.228 0 0 1 .238-.226c.127.003.229.109.226.237a48.77 48.77 0 0 0-.012 1.465.232.232 0 0 1-.23.233h-.001zm.068-2.943h-.012a.232.232 0 0 1-.22-.244c.027-.491.061-.988.102-1.477a.232.232 0 1 1 .462.039c-.04.484-.075.976-.1 1.462a.232.232 0 0 1-.232.22zm.248-2.935-.027-.001a.232.232 0 0 1-.204-.257c.057-.488.122-.982.194-1.467a.232.232 0 1 1 .458.068c-.07.48-.135.97-.191 1.452a.232.232 0 0 1-.23.205zm.431-2.912a.232.232 0 0 1-.228-.273l.022-.12c.081-.442.174-.89.274-1.331a.232.232 0 1 1 .452.103c-.1.435-.19.876-.27 1.31l-.022.12a.232.232 0 0 1-.228.19zm.651-2.868a.232.232 0 0 1-.223-.293c.129-.47.27-.948.42-1.42a.231.231 0 1 1 .441.141c-.148.465-.287.937-.414 1.401a.232.232 0 0 1-.224.171zm.892-2.803a.232.232 0 0 1-.218-.31c.166-.458.345-.923.531-1.381a.232.232 0 0 1 .43.174c-.185.453-.361.912-.525 1.365a.232.232 0 0 1-.218.152zm1.106-2.725a.231.231 0 0 1-.211-.327c.2-.444.411-.895.63-1.339a.231.231 0 1 1 .415.205c-.215.439-.425.884-.622 1.324a.232.232 0 0 1-.212.137zm1.298-2.64a.23.23 0 0 1-.204-.342c.23-.43.472-.865.72-1.292a.232.232 0 0 1 .4.231 44.74 44.74 0 0 0-.711 1.28.232.232 0 0 1-.205.122zm1.472-2.55a.232.232 0 0 1-.197-.354c.258-.414.527-.833.8-1.244a.232.232 0 1 1 .386.257c-.27.407-.537.821-.792 1.232a.231.231 0 0 1-.197.11zm1.63-2.451a.232.232 0 0 1-.189-.366c.282-.398.576-.8.874-1.193a.232.232 0 1 1 .37.279c-.295.39-.586.788-.866 1.182a.231.231 0 0 1-.19.098zm1.774-2.35a.231.231 0 0 1-.18-.377c.306-.38.623-.764.943-1.14a.232.232 0 0 1 .353.3c-.317.373-.632.753-.935 1.13a.231.231 0 0 1-.18.087zm1.911-2.242a.231.231 0 0 1-.172-.387c.33-.366.67-.73 1.009-1.084a.232.232 0 1 1 .334.32c-.335.35-.671.712-.999 1.074a.231.231 0 0 1-.172.077zm2.039-2.128a.232.232 0 0 1-.163-.397c.352-.346.712-.69 1.07-1.023a.232.232 0 1 1 .316.34c-.356.33-.713.67-1.06 1.013a.23.23 0 0 1-.163.067zm2.161-2.005a.231.231 0 0 1-.152-.406 48.01 48.01 0 0 1 1.13-.957.232.232 0 1 1 .294.358c-.375.307-.751.626-1.12.948a.23.23 0 0 1-.152.057zM42.607 5.501a.231.231 0 0 1-.141-.415c.197-.152.395-.301.594-.45a.232.232 0 0 1 .276.373 44.78 44.78 0 0 0-.588.444.23.23 0 0 1-.141.048z" opacity="1" data-original="#ffffff"></path><g opacity=".4"><path fill="#ffffff" d="M4.94 25.044c-.32 1.275.126 2.177.803 2.009.67-.16 1.288-1.123 1.552-2.164.243-1.02.077-1.898-.53-1.978-.621-.077-1.52.874-1.826 2.133zM13.125 15.858c3.16-3.384 5.799-4.748 5.796-5.866.167-.99-3.37-1.206-7.831 3.458-4.487 5.217-4.13 8.634-3.32 8.51 1.024.092 2.095-2.386 5.355-6.102z" opacity="1" data-original="#ffffff"></path></g></g></svg>
