<svg width="240" height="203" viewBox="0 0 240 203" fill="none" xmlns="http://www.w3.org/2000/svg">
<path d="M114.639 140.72C105.015 143.17 96.9869 151.085 95.0421 160.131C93.6957 166.115 95.2416 173.937 98.7322 178.884C103.669 185.904 110.949 189.862 119.676 190.333C128.103 190.757 133.987 188.59 139.921 182.936C142.265 180.721 144.21 178.365 145.057 176.669C150.243 166.445 148.299 155.373 139.971 147.504C133.239 141.144 123.366 138.505 114.639 140.72Z" fill="#A80808"/>
<path d="M114.192 0.495175C110.901 1.53173 108.906 2.70965 106.114 5.15969C103.521 7.5155 101.477 10.3425 100.729 12.5569C100.33 13.8291 6.53239 167.098 3.98925 170.679C0.548522 175.485 0 177.181 0 183.165C0 188.3 0.0997311 188.724 1.5957 191.693C3.59032 195.509 8.02836 199.655 12.0675 201.446C14.7104 202.624 15.4583 202.718 20.9436 202.718C26.728 202.718 27.077 202.671 30.2186 201.21C32.2431 200.23 34.0937 198.959 35.7038 197.441C37.1499 195.933 51.6608 172.673 79.2364 127.662C120.425 60.427 120.625 60.1442 121.323 61.4635C124.315 66.8347 201.607 194.614 202.654 195.886C204.748 198.383 209.037 200.974 212.826 202.105C217.647 203.522 222.848 203.249 227.473 201.337C232.098 199.424 235.839 196 238.009 191.693C239.804 188.253 239.854 188.065 239.854 182.74C239.854 177.558 239.754 177.134 238.308 174.448C237.46 172.893 227.287 155.931 215.719 136.755C173.133 66.4107 141.469 13.6877 139.873 10.7665C137.734 6.80549 134.285 3.6126 130.049 1.67308C126.958 0.259594 126.26 0.118246 121.423 0.0240136C118.132 -0.0702187 115.439 0.118246 114.192 0.495175Z" fill="#A80808"/>
<ellipse cx="84.5" cy="28.5" rx="20.5" ry="24.5" fill="white"/>
<ellipse cx="153.5" cy="28.5" rx="20.5" ry="24.5" fill="white"/>
</svg>
